PathFileType	4	(X/Y/Z)	RBDS014static.trc
DataRate	CameraRate	NumFrames	NumMarkers	Units	OrigDataRate	OrigDataStartFrame	OrigNumFrames
150.000000	150.000000	4	48	mm	150.000000	37	150
Frame#	Time	L.Ankle			L.Ankle.Medial			L.ASIS			L.GTR			L.Heel.Bottom			L.Heel.Lateral			L.Heel.Top			L.HF			L.Iliac.Crest			L.Knee			L.Knee.Medial			L.MT1			L.MT2			L.MT5			L.PSIS			L.Shank.Bottom.Lateral			L.Shank.Bottom.Medial			L.Shank.Top.Lateral			L.Shank.Top.Medial			L.Thigh.Bottom.Lateral			L.Thigh.Bottom.Medial			L.Thigh.Top.Lateral			L.Thigh.Top.Medial			L.TT			R.Ankle			R.Ankle.Medial			R.ASIS			R.GTR			R.Heel.Bottom			R.Heel.Lateral			R.Heel.Top			R.HF			R.Iliac.Crest			R.Knee			R.Knee.Medial			R.MT1			R.MT2			R.MT5			R.PSIS			R.Shank.Bottom.Lateral			R.Shank.Bottom.Medial			R.Shank.Top.Lateral			R.Shank.Top.Medial			R.Thigh.Bottom.Lateral			R.Thigh.Bottom.Medial			R.Thigh.Top.Lateral			R.Thigh.Top.Medial			R.TT			
		X1	Y1	Z1	X2	Y2	Z2	X3	Y3	Z3	X4	Y4	Z4	X5	Y5	Z5	X6	Y6	Z6	X7	Y7	Z7	X8	Y8	Z8	X9	Y9	Z9	X10	Y10	Z10	X11	Y11	Z11	X12	Y12	Z12	X13	Y13	Z13	X14	Y14	Z14	X15	Y15	Z15	X16	Y16	Z16	X17	Y17	Z17	X18	Y18	Z18	X19	Y19	Z19	X20	Y20	Z20	X21	Y21	Z21	X22	Y22	Z22	X23	Y23	Z23	X24	Y24	Z24	X25	Y25	Z25	X26	Y26	Z26	X27	Y27	Z27	X28	Y28	Z28	X29	Y29	Z29	X30	Y30	Z30	X31	Y31	Z31	X32	Y32	Z32	X33	Y33	Z33	X34	Y34	Z34	X35	Y35	Z35	X36	Y36	Z36	X37	Y37	Z37	X38	Y38	Z38	X39	Y39	Z39	X40	Y40	Z40	X41	Y41	Z41	X42	Y42	Z42	X43	Y43	Z43	X44	Y44	Z44	X45	Y45	Z45	X46	Y46	Z46	X47	Y47	Z47	X48	Y48	Z48	

38	0.2466666666666667	714.9470825195313	108.1259460449219	1042.289672851563	740.4503784179688	118.7471923828125	1127.972290039063	859.3186645507813	1133.528442382813	1110.276489257813	778.7865600585938	1022.626098632813	1053.206665039063	643.4042358398438	41.5359001159668	1085.365234375	665.9183349609375	65.25875854492188	1045.1083984375	652.9863891601563	92.18875122070313	1087.24169921875	778.0596313476563	523.623046875	1039.389770507813	781.839599609375	1191.869873046875	1069.866577148438	787.2128295898438	596.5722045898438	1050.203002929688	781.68408203125	576.4262084960938	1173.429443359375	876.8015747070313	57.77223968505859	1132.56201171875	886.6167602539063	69.27420043945313	1088.685791015625	840.1171264648438	51.17513656616211	1013.3642578125	677.672607421875	1149.876098632813	1184.23681640625	725.8352661132813	207.8067779541016	1031.464111328125	682.8011474609375	210.6645355224609	1066.260375976563	722.28955078125	287.7774963378906	1021.578857421875	681.034423828125	291.2422790527344	1056.0400390625	782.4790649414063	753.6259155273438	1030.796997070313	721.1880493164063	748.1022338867188	1069.454467773438	767.377685546875	863.4647827148438	1028.795043945313	712.3154296875	858.330810546875	1068.973999023438	831.8898315429688	494.207275390625	1097.18701171875	721.0440673828125	108.275260925293	1417.598510742188	748.3229370117188	126.1728057861328	1332.414916992188	861.4193115234375	1142.376953125	1356.741577148438	796.9451904296875	1032.347778320313	1411.926879882813	646.17529296875	43.13242721557617	1374.216064453125	669.6294555664063	66.46530151367188	1412.268798828125	654.9933471679688	95.11507415771484	1371.734619140625	787.1179809570313	535.3892211914063	1420.624633789063	797.9560546875	1208.488159179688	1382.067260742188	790.561767578125	606.2559814453125	1411.758056640625	786.9073486328125	582.2196655273438	1287.364990234375	879.399169921875	58.64943313598633	1326.967407226563	890.1807861328125	72.48461151123047	1371.48583984375	846.9869995117188	51.69070816040039	1448.453247070313	685.7230834960938	1158.650146484375	1278.402465820313	714.0919189453125	208.4881134033203	1422.735595703125	684.2882080078125	215.9111785888672	1381.735229492188	715.1412963867188	292.6320190429688	1434.953002929688	683.009033203125	296.0513305664063	1392.73779296875	809.7238159179688	736.2521362304688	1428.736694335938	741.2963256835938	733.034423828125	1403.097778320313	799.223388671875	845.0474243164063	1436.135620117188	734.5744018554688	842.7189331054688	1409.723388671875	837.7476806640625	499.9684448242188	1358.415283203125	
39	0.2533333333333334	714.95068359375	108.1214141845703	1042.296020507813	740.4503784179688	118.737548828125	1127.9716796875	859.32275390625	1133.529418945313	1110.284423828125	778.8165893554688	1022.630737304688	1053.212280273438	643.4009399414063	41.54786682128906	1085.357177734375	665.9177856445313	65.26216888427734	1045.109985351563	652.99072265625	92.19638061523438	1087.249633789063	778.064208984375	523.6094360351563	1039.397338867188	781.842529296875	1191.85693359375	1069.866577148438	787.2273559570313	596.5643920898438	1050.219848632813	781.6922607421875	576.427001953125	1173.421020507813	876.8117065429688	57.77804565429688	1132.572509765625	886.6166381835938	69.26802062988281	1088.681396484375	840.1178588867188	51.16500854492188	1013.366638183594	677.6778564453125	1149.876586914063	1184.231079101563	725.8561401367188	207.7943115234375	1031.487182617188	682.8049926757813	210.6598510742188	1066.255737304688	722.3019409179688	287.7695922851563	1021.583251953125	681.0457763671875	291.2381896972656	1056.043090820313	782.4937133789063	753.6156005859375	1030.809936523438	721.184326171875	748.1123657226563	1069.450073242188	767.3992919921875	863.4624633789063	1028.794189453125	712.327392578125	858.3370971679688	1068.96923828125	831.9035034179688	494.2131652832031	1097.193237304688	721.050048828125	108.274543762207	1417.594604492188	748.3245849609375	126.1446533203125	1332.437133789063	861.4232177734375	1142.376586914063	1356.75537109375	796.935302734375	1032.3466796875	1411.933837890625	646.1774291992188	43.12920761108398	1374.222045898438	669.6309814453125	66.46559143066406	1412.271850585938	655.002197265625	95.11083984375	1371.7392578125	787.1380615234375	535.3809204101563	1420.610961914063	797.9645385742188	1208.507934570313	1382.0595703125	790.5722045898438	606.2512817382813	1411.761474609375	786.937744140625	582.2157592773438	1287.374755859375	879.4095458984375	58.63748168945313	1326.970703125	890.1852416992188	72.47864532470703	1371.493530273438	846.9910278320313	51.69024276733398	1448.465576171875	685.7135009765625	1158.653686523438	1278.404663085938	714.0986938476563	208.4799499511719	1422.7265625	684.3027954101563	215.9091339111328	1381.737915039063	715.1497802734375	292.6447143554688	1434.9580078125	683.0252075195313	296.0509033203125	1392.742797851563	809.7382202148438	736.2515258789063	1428.726318359375	741.3145141601563	733.0171508789063	1403.080078125	799.234619140625	845.042236328125	1436.124267578125	734.5818481445313	842.7062377929688	1409.721313476563	837.7659912109375	499.9700317382813	1358.427734375	
40	0.26	714.9551391601563	108.1262741088867	1042.29541015625	740.4512939453125	118.7371673583984	1127.963989257813	859.3155517578125	1133.5185546875	1110.279663085938	778.820068359375	1022.621704101563	1053.201416015625	643.4063110351563	41.53703308105469	1085.350463867188	665.9287719726563	65.26005554199219	1045.12109375	652.9864501953125	92.19343566894531	1087.245727539063	778.0760498046875	523.6112060546875	1039.40673828125	781.8395385742188	1191.842895507813	1069.8603515625	787.2351684570313	596.5485229492188	1050.214111328125	781.6930541992188	576.4279174804688	1173.433837890625	876.8026733398438	57.75571060180664	1132.561157226563	886.6141967773438	69.26310729980469	1088.68310546875	840.1170654296875	51.16508102416992	1013.366394042969	677.68115234375	1149.869750976563	1184.226318359375	725.85302734375	207.7899017333984	1031.482421875	682.8001098632813	210.6653137207031	1066.254638671875	722.29736328125	287.7624816894531	1021.578857421875	681.0460205078125	291.2417602539063	1056.03955078125	782.5039672851563	753.6177978515625	1030.80517578125	721.1995239257813	748.1005859375	1069.438842773438	767.4072265625	863.4630126953125	1028.795532226563	712.3375244140625	858.3346557617188	1068.951904296875	831.9034423828125	494.2078857421875	1097.18408203125	721.0458984375	108.2760925292969	1417.597534179688	748.3399658203125	126.1638336181641	1332.433471679688	861.4208984375	1142.380615234375	1356.73681640625	796.935302734375	1032.350708007813	1411.925170898438	646.1817016601563	43.13127899169922	1374.218994140625	669.6361083984375	66.46880340576172	1412.273193359375	655.0052490234375	95.11310577392578	1371.738403320313	787.1718139648438	535.3845825195313	1420.609252929688	797.967529296875	1208.50146484375	1382.065673828125	790.5977172851563	606.2484130859375	1411.756103515625	786.9414672851563	582.2090454101563	1287.367309570313	879.4019165039063	58.62204742431641	1326.968994140625	890.1870727539063	72.47530364990234	1371.487548828125	846.9918212890625	51.68500518798828	1448.450927734375	685.712646484375	1158.636840820313	1278.382080078125	714.1165161132813	208.4909210205078	1422.729248046875	684.3167724609375	215.9063415527344	1381.7470703125	715.1715698242188	292.6472778320313	1434.963623046875	683.04345703125	296.05615234375	1392.75927734375	809.7537841796875	736.2452392578125	1428.718139648438	741.3328247070313	733.0161743164063	1403.080810546875	799.234130859375	845.038818359375	1436.124267578125	734.584716796875	842.7127075195313	1409.722900390625	837.7881469726563	499.9633483886719	1358.423461914063	
41	0.2666666666666667	714.9549560546875	108.1211090087891	1042.29052734375	740.459716796875	118.7424163818359	1127.97900390625	859.3103637695313	1133.528930664063	1110.280151367188	778.8184814453125	1022.629333496094	1053.185668945313	643.40625	41.54603958129883	1085.360473632813	665.9241943359375	65.26126861572266	1045.118041992188	652.9863891601563	92.20044708251953	1087.240966796875	778.0765991210938	523.6178588867188	1039.405029296875	781.83740234375	1191.850463867188	1069.860229492188	787.2493286132813	596.5648803710938	1050.20751953125	781.7062377929688	576.4224243164063	1173.430053710938	876.7992553710938	57.77461242675781	1132.56884765625	886.6124877929688	69.27767181396484	1088.6884765625	840.1197509765625	51.17140579223633	1013.357849121094	677.6805419921875	1149.872314453125	1184.2236328125	725.8433837890625	207.8023681640625	1031.474487304688	682.8016357421875	210.6723022460938	1066.24755859375	722.2980346679688	287.7735290527344	1021.567077636719	681.057861328125	291.2514343261719	1056.021484375	782.5112915039063	753.6201782226563	1030.806274414063	721.2022705078125	748.115478515625	1069.444580078125	767.4328002929688	863.4631958007813	1028.800415039063	712.3500366210938	858.3417358398438	1068.951416015625	831.9096069335938	494.2018127441406	1097.203247070313	721.0553588867188	108.2775802612305	1417.599243164063	748.3432006835938	126.1642837524414	1332.427368164063	861.4075927734375	1142.391357421875	1356.728393554688	796.93212890625	1032.355834960938	1411.926513671875	646.1773681640625	43.13771057128906	1374.2099609375	669.6365966796875	66.46974945068359	1412.267333984375	655.010498046875	95.11631011962891	1371.72509765625	787.196044921875	535.38134765625	1420.607666015625	797.9768676757813	1208.520751953125	1382.060791015625	790.6348876953125	606.2532958984375	1411.761962890625	786.9769897460938	582.21630859375	1287.360717773438	879.4068603515625	58.63956069946289	1326.976440429688	890.1873779296875	72.47832489013672	1371.49169921875	846.9921264648438	51.69318389892578	1448.463745117188	685.7208251953125	1158.649169921875	1278.392944335938	714.1288452148438	208.4895172119141	1422.738525390625	684.3265991210938	215.9172821044922	1381.746704101563	715.186767578125	292.6512756347656	1434.963989257813	683.055908203125	296.0654907226563	1392.755004882813	809.7680053710938	736.2499389648438	1428.706787109375	741.3406372070313	733.0130004882813	1403.07666015625	799.2449340820313	845.0313720703125	1436.125	734.5950927734375	842.7033081054688	1409.730712890625	837.7984619140625	499.9669189453125	1358.420532226563	
